<?xml version="1.0" encoding="utf-8"?>
<!-- Generator: Adobe Illustrator 28.0.0, SVG Export Plug-In . SVG Version: 6.00 Build 0)  -->
<svg version="1.1" id="Layer_1" xmlns="http://www.w3.org/2000/svg" xmlns:xlink="http://www.w3.org/1999/xlink" x="0px" y="0px"
	 viewBox="0 0 240 240" style="enable-background:new 0 0 240 240;" xml:space="preserve">
<style type="text/css">
	.st0{fill:#FFFFFF;}
	.st1{fill:url(#SVGID_1_);}
</style>
<path class="st0" d="M122.2,57.1c-43.2,0-66.1,29-66.1,60.5c0,14.7,7.8,32.9,20.3,38.7c1.9,0.9,2.9,0.5,3.3-1.3
	c0.3-1.4,2-8.2,2.8-11.3c0.2-1,0.1-1.9-0.7-2.9c-4.1-5-7.4-14.2-7.4-22.8c0-22.1,16.7-43.4,45.1-43.4c24.6,0,41.8,16.7,41.8,40.7
	c0,27-13.7,45.8-31.4,45.8c-9.8,0-17.2-8.1-14.8-18.1c2.8-11.9,8.3-24.7,8.3-33.3c0-7.7-4.1-14.1-12.6-14.1
	c-10,0-18.1,10.4-18.1,24.3c0,8.9,3,14.8,3,14.8s-9.9,41.9-11.7,49.7c-2,8.6-1.2,20.7-0.4,28.6l0,0c2.3,0.9,4.5,1.8,6.8,2.5l0,0
	c4.1-6.6,10.2-17.5,12.4-26.2c1.2-4.7,6.2-23.8,6.2-23.8c3.3,6.2,12.8,11.5,22.9,11.5c30.2,0,51.9-27.7,51.9-62.2
	C183.9,81.8,156.9,57.1,122.2,57.1z"/>
<g>
	<linearGradient id="SVGID_1_" gradientUnits="userSpaceOnUse" x1="49.2893" y1="190.7107" x2="190.7107" y2="49.2893">
		<stop  offset="2.600000e-07" style="stop-color:#FAAD4F"/>
		<stop  offset="0.3482" style="stop-color:#DD2A7B"/>
		<stop  offset="0.6246" style="stop-color:#9537B0"/>
		<stop  offset="1" style="stop-color:#515BD4"/>
	</linearGradient>
	<path class="st1" d="M120,220L120,220c-55.2,0-100-44.8-100-100v0C20,64.8,64.8,20,120,20h0c55.2,0,100,44.8,100,100v0
		C220,175.2,175.2,220,120,220z"/>
	<g>
		<path class="st0" d="M150.9,60.7H89.1c-17.1,0-31,13.9-31,31v56.6c0,17.1,13.9,31,31,31h61.9c17.1,0,31-13.9,31-31V91.7
			C181.9,74.6,168,60.7,150.9,60.7z M69,91.7c0-11.1,9-20.1,20.1-20.1h61.9c11.1,0,20.1,9,20.1,20.1v56.6c0,11.1-9,20.1-20.1,20.1
			H89.1c-11.1,0-20.1-9-20.1-20.1V91.7z"/>
		<path class="st0" d="M120,148.8c15.9,0,28.8-12.9,28.8-28.8S135.9,91.2,120,91.2c-15.9,0-28.8,12.9-28.8,28.8
			S104.1,148.8,120,148.8z M120,102.1c9.9,0,17.9,8,17.9,17.9s-8,17.9-17.9,17.9c-9.9,0-17.9-8-17.9-17.9S110.1,102.1,120,102.1z"/>
		<path class="st0" d="M151.5,95.8c4.3,0,7.8-3.5,7.8-7.8c0-4.3-3.5-7.8-7.8-7.8c-4.3,0-7.8,3.5-7.8,7.8
			C143.7,92.3,147.2,95.8,151.5,95.8z"/>
	</g>
</g>
</svg>
