<?xml version="1.0" encoding="utf-8"?>
<!-- Generator: Adobe Illustrator 28.0.0, SVG Export Plug-In . SVG Version: 6.00 Build 0)  -->
<svg version="1.1" id="Layer_1" xmlns="http://www.w3.org/2000/svg" xmlns:xlink="http://www.w3.org/1999/xlink" x="0px" y="0px"
	 viewBox="0 0 240 240" style="enable-background:new 0 0 240 240;" xml:space="preserve">
<style type="text/css">
	.st0{fill:#FFFFFF;}
	.st1{fill:url(#SVGID_1_);}
	.st2{fill:url(#SVGID_00000056391249404923474060000014647557896555983544_);}
</style>
<path class="st0" d="M122.2,57.1c-43.2,0-66.1,29-66.1,60.5c0,14.7,7.8,32.9,20.3,38.7c1.9,0.9,2.9,0.5,3.3-1.3
	c0.3-1.4,2-8.2,2.8-11.3c0.2-1,0.1-1.9-0.7-2.9c-4.1-5-7.4-14.2-7.4-22.8c0-22.1,16.7-43.4,45.1-43.4c24.6,0,41.8,16.7,41.8,40.7
	c0,27-13.7,45.8-31.4,45.8c-9.8,0-17.2-8.1-14.8-18.1c2.8-11.9,8.3-24.7,8.3-33.3c0-7.7-4.1-14.1-12.6-14.1
	c-10,0-18.1,10.4-18.1,24.3c0,8.9,3,14.8,3,14.8s-9.9,41.9-11.7,49.7c-2,8.6-1.2,20.7-0.4,28.6l0,0c2.3,0.9,4.5,1.8,6.8,2.5l0,0
	c4.1-6.6,10.2-17.5,12.4-26.2c1.2-4.7,6.2-23.8,6.2-23.8c3.3,6.2,12.8,11.5,22.9,11.5c30.2,0,51.9-27.7,51.9-62.2
	C183.9,81.8,156.9,57.1,122.2,57.1z"/>
<g>
	<linearGradient id="SVGID_1_" gradientUnits="userSpaceOnUse" x1="49.2893" y1="190.7107" x2="190.7107" y2="49.2893">
		<stop  offset="4.277820e-03" style="stop-color:#0498FA"/>
		<stop  offset="0.3357" style="stop-color:#5C5EFE"/>
		<stop  offset="0.735" style="stop-color:#F44E90"/>
		<stop  offset="1" style="stop-color:#FA8679"/>
	</linearGradient>
	<path class="st1" d="M120,220L120,220c-55.2,0-100-44.8-100-100v0C20,64.8,64.8,20,120,20h0c55.2,0,100,44.8,100,100v0
		C220,175.2,175.2,220,120,220z"/>
	<g>
		<g>
			<path class="st0" d="M179.5,120v0.3c-0.2,28.6-20.6,52.5-47.7,58c-1.8,0.4-3.7,0.7-5.6,0.9c-2,0.2-4.1,0.3-6.2,0.3
				c-8.3,0-16.1-1.7-23.3-4.7l-27.6,2.9c-4.7,0.5-8.2-4.3-6.2-8.6l7.4-16.4c-6.2-9.4-9.8-20.6-9.8-32.7c0-32.8,26.7-59.5,59.5-59.5
				c31,0,56.6,23.9,59.3,54.2C179.5,116.4,179.5,118.2,179.5,120z"/>
		</g>
	</g>
	
		<linearGradient id="SVGID_00000118378083662712947970000008576805566621452204_" gradientUnits="userSpaceOnUse" x1="95.1873" y1="144.9983" x2="145.029" y2="95.1566">
		<stop  offset="4.277820e-03" style="stop-color:#0498FA"/>
		<stop  offset="0.3357" style="stop-color:#5C5EFE"/>
		<stop  offset="0.735" style="stop-color:#F44E90"/>
		<stop  offset="1" style="stop-color:#FA8679"/>
	</linearGradient>
	<path style="fill:url(#SVGID_00000118378083662712947970000008576805566621452204_);" d="M148.6,102.6c2.7-2.2,6.3,1.1,4.5,4
		l-12.5,19.3l-6.6,10.2c-1.4,2.2-4.4,2.7-6.4,1.1l-11-8.3l-6.8-5.1c-0.5-0.4-1.3-0.4-1.8,0l-16.6,13.5c-2.7,2.2-6.3-1.1-4.4-4
		l11.7-18.1l6.6-10.2c1.4-2.2,4.4-2.7,6.4-1.1l10.6,8.1l6.8,5.1c0.6,0.4,1.3,0.4,1.8,0L148.6,102.6z"/>
</g>
</svg>
