<?xml version="1.0" encoding="utf-8"?>
<!-- Generator: Adobe Illustrator 28.0.0, SVG Export Plug-In . SVG Version: 6.00 Build 0)  -->
<svg version="1.1" id="Layer_1" xmlns="http://www.w3.org/2000/svg" xmlns:xlink="http://www.w3.org/1999/xlink" x="0px" y="0px"
	 viewBox="0 0 240 240" style="enable-background:new 0 0 240 240;" xml:space="preserve">
<style type="text/css">
	.st0{fill:#FFFFFF;}
	.st1{fill:#00E510;}
	.st2{fill:#FDFDFD;}
</style>
<path class="st0" d="M122.2,57.1c-43.2,0-66.1,29-66.1,60.5c0,14.7,7.8,32.9,20.3,38.7c1.9,0.9,2.9,0.5,3.3-1.3
	c0.3-1.4,2-8.2,2.8-11.3c0.2-1,0.1-1.9-0.7-2.9c-4.1-5-7.4-14.2-7.4-22.8c0-22.1,16.7-43.4,45.1-43.4c24.6,0,41.8,16.7,41.8,40.7
	c0,27-13.7,45.8-31.4,45.8c-9.8,0-17.2-8.1-14.8-18.1c2.8-11.9,8.3-24.7,8.3-33.3c0-7.7-4.1-14.1-12.6-14.1
	c-10,0-18.1,10.4-18.1,24.3c0,8.9,3,14.8,3,14.8s-9.9,41.9-11.7,49.7c-2,8.6-1.2,20.7-0.4,28.6l0,0c2.3,0.9,4.5,1.8,6.8,2.5l0,0
	c4.1-6.6,10.2-17.5,12.4-26.2c1.2-4.7,6.2-23.8,6.2-23.8c3.3,6.2,12.8,11.5,22.9,11.5c30.2,0,51.9-27.7,51.9-62.2
	C183.9,81.8,156.9,57.1,122.2,57.1z"/>
<g>
	<path class="st1" d="M120,220.4L120,220.4c-55.2,0-100-44.8-100-100v0c0-55.2,44.8-100,100-100h0c55.2,0,100,44.8,100,100v0
		C220,175.6,175.2,220.4,120,220.4z"/>
	<g>
		<g>
			<path class="st2" d="M139.5,149.7c-25.6,0-46.4-20.8-46.4-46.4c0-6.5,5.3-11.8,11.8-11.8c0.7,0,1.3,0.1,2,0.2
				c1.4,0.2,2.7,0.7,3.9,1.4c0.2,0.1,0.3,0.3,0.3,0.5l2.7,17.1c0,0.2,0,0.4-0.2,0.5c-1.5,1.7-3.4,2.8-5.5,3.4l-1,0.3l0.4,1
				c3.5,8.9,10.6,16,19.5,19.5l1,0.4l0.3-1c0.6-2.1,1.8-4,3.4-5.5c0.1-0.1,0.3-0.2,0.4-0.2c0,0,0.1,0,0.1,0l17,2.7
				c0.2,0,0.4,0.1,0.5,0.3c0.7,1.2,1.2,2.5,1.4,3.9c0.1,0.6,0.2,1.3,0.2,2C151.3,144.4,146,149.7,139.5,149.7L139.5,149.7z"/>
		</g>
		<path class="st2" d="M184.9,114.8c-1.4-15.6-8.5-30.1-20.1-40.7c-11.7-10.7-26.8-16.6-42.6-16.6c-34.7,0-63,28.3-63,63
			c0,11.7,3.2,23,9.3,32.9l-13.6,30.1l43.5-4.6c7.6,3.1,15.6,4.7,23.8,4.7c2.2,0,4.4-0.1,6.6-0.3c2-0.2,3.9-0.5,5.9-0.9
			c29.1-5.9,50.3-31.7,50.5-61.4v-0.3C185.1,118.5,185.1,116.6,184.9,114.8z M100,165.6l-24.1,2.6l7.2-15.9l-1.4-1.9
			c-0.1-0.1-0.2-0.3-0.3-0.4c-6.2-8.6-9.5-18.8-9.5-29.4c0-27.7,22.6-50.3,50.3-50.3c26,0,48,20.3,50.1,46.1
			c0.1,1.4,0.2,2.8,0.2,4.2c0,0.4,0,0.8,0,1.2c-0.5,23.2-16.7,42.9-39.4,47.9c-1.7,0.4-3.5,0.7-5.3,0.9c-1.8,0.2-3.7,0.3-5.6,0.3
			c-6.7,0-13.1-1.3-19.3-3.8c-0.7-0.3-1.3-0.6-2-0.9L100,165.6z"/>
	</g>
</g>
</svg>
