<?xml version="1.0" encoding="utf-8"?>
<!-- Generator: Adobe Illustrator 28.0.0, SVG Export Plug-In . SVG Version: 6.00 Build 0)  -->
<svg version="1.1" id="Layer_1" xmlns="http://www.w3.org/2000/svg" xmlns:xlink="http://www.w3.org/1999/xlink" x="0px" y="0px"
	 viewBox="0 0 240 240" style="enable-background:new 0 0 240 240;" xml:space="preserve">
<style type="text/css">
	.st0{fill:#FFFFFF;}
	.st1{fill:#FF0209;}
</style>
<path class="st0" d="M122.2,57.1c-43.2,0-66.1,29-66.1,60.5c0,14.7,7.8,32.9,20.3,38.7c1.9,0.9,2.9,0.5,3.3-1.3
	c0.3-1.4,2-8.2,2.8-11.3c0.2-1,0.1-1.9-0.7-2.9c-4.1-5-7.4-14.2-7.4-22.8c0-22.1,16.7-43.4,45.1-43.4c24.6,0,41.8,16.7,41.8,40.7
	c0,27-13.7,45.8-31.4,45.8c-9.8,0-17.2-8.1-14.8-18.1c2.8-11.9,8.3-24.7,8.3-33.3c0-7.7-4.1-14.1-12.6-14.1
	c-10,0-18.1,10.4-18.1,24.3c0,8.9,3,14.8,3,14.8s-9.9,41.9-11.7,49.7c-2,8.6-1.2,20.7-0.4,28.6l0,0c2.3,0.9,4.5,1.8,6.8,2.5l0,0
	c4.1-6.6,10.2-17.5,12.4-26.2c1.2-4.7,6.2-23.8,6.2-23.8c3.3,6.2,12.8,11.5,22.9,11.5c30.2,0,51.9-27.7,51.9-62.2
	C183.9,81.8,156.9,57.1,122.2,57.1z"/>
<g>
	<path class="st1" d="M120,220L120,220c-55.2,0-100-44.8-100-100v0C20,64.8,64.8,20,120,20h0c55.2,0,100,44.8,100,100v0
		C220,175.2,175.2,220,120,220z"/>
	<g>
		<path class="st0" d="M162.5,164.3c-3,0.3-6,0.4-9,0.4c-22.8,0-45.6,0-68.4-0.1c-7.2,0-15-0.2-20.5-4.8c-6.2-5.1-7.5-14.1-8.1-22.2
			c-0.7-11.1-0.8-22.2-0.2-33.3c0.3-6.1,0.9-12.3,3.5-17.8c1.9-4,5-7.5,9-9.4c4.7-2.2,9.6-1.8,14.6-1.8c12,0,24.1,0,36.1,0
			c12.5,0,25.1,0,37.6,0c5.9,0,12.3,0.1,17.1,3.5c6.2,4.4,7.9,12.8,8.7,20.4c1.4,14,1.5,28.1,0.1,42.1c-0.6,5.8-1.6,11.9-5.4,16.2
			C173.9,162,168.3,163.7,162.5,164.3z"/>
		<polygon class="st1" points="140.4,120 106.4,100.4 106.4,139.6 		"/>
	</g>
</g>
</svg>
