<?xml version="1.0" encoding="UTF-8"?>
<svg id="katman_2" xmlns="http://www.w3.org/2000/svg" viewBox="0 0 1501 1501">
  <defs>
    <style>
      .cls-1 {
        fill: #fff;
      }

      .cls-2 {
        fill: #e52722;
        stroke: #1d1d1b;
        stroke-miterlimit: 10;
      }
    </style>
  </defs>
  <g id="katman_1">
    <circle class="cls-2" cx="750.5" cy="750.5" r="750"/>
    <path class="cls-1" d="M971.21,750.5l347.28-112.83-214.65,295.4v-365.15l214.65,295.4-347.28-112.83ZM994.89,955.8c-113.39,179.18-350.56,232.52-529.74,119.13-179.18-113.39-232.52-350.56-119.13-529.74,113.39-179.18,350.56-232.52,529.74-119.13,48.04,30.4,88.73,71.09,119.13,119.13-113.39-126.17-307.58-136.54-433.76-23.15-126.17,113.39-136.54,307.58-23.15,433.76,113.39,126.17,307.58,136.54,433.76,23.15,8.12-7.3,15.85-15.03,23.15-23.15Z"/>
  </g>
</svg>